<?xml version="1.0" encoding="UTF-8" standalone="no"?>
<svg width="34px" height="34px" viewBox="0 0 34 34" version="1.1" xmlns="http://www.w3.org/2000/svg" xmlns:xlink="http://www.w3.org/1999/xlink">
    <title>Adobe Photoshop</title>
    <defs>
        <rect id="path-1" x="0.652173913" y="0" width="33.0434783" height="33.017437" rx="12"></rect>
        <mask id="mask-2" maskContentUnits="userSpaceOnUse" maskUnits="objectBoundingBox" x="0" y="0" width="33.0434783" height="33.017437" fill="white">
            <use xlink:href="#path-1"></use>
        </mask>
    </defs>
    <g id="Tutpad" stroke="none" stroke-width="1" fill="none" fill-rule="evenodd">
        <g id="V1_Tutpad_list" transform="translate(-1298.000000, -658.000000)">
            <g id="Group-35" transform="translate(1298.000000, 658.000000)">
                <use id="Rectangle-23" stroke="#2FD0FE" mask="url(#mask-2)" stroke-width="6" fill="#07004A" xlink:href="#path-1"></use>
                <path d="M10.5572187,19.9675359 C10.5572187,20.5354358 11.0062558,20.9844729 11.5741557,20.9844729 C12.1420556,20.9844729 12.5910928,20.5354358 12.5910928,19.9675359 L12.5910928,18.1317664 L14.1363088,18.1317664 C16.2098039,18.1317664 17.8738827,17.0223805 17.8738827,14.8828506 L17.8738827,14.8564366 C17.8738827,12.9678392 16.5399783,11.6603487 14.3344135,11.6603487 L11.5741557,11.6603487 C11.0062558,11.6603487 10.5572187,12.1093859 10.5572187,12.6772858 L10.5572187,19.9675359 Z M12.5910928,16.3224108 L12.5910928,13.4961182 L14.1627228,13.4961182 C15.1796598,13.4961182 15.8135946,13.9847763 15.8135946,14.8960576 L15.8135946,14.9224715 C15.8135946,15.71489 15.2192808,16.3224108 14.2023437,16.3224108 L12.5910928,16.3224108 Z M21.6510775,21.0373008 C23.1830866,21.0373008 24.3585073,20.3241242 24.3585073,18.7524942 L24.3585073,18.7260803 C24.3585073,17.4317967 23.2095005,16.9563456 22.2189774,16.6261713 C21.4529729,16.3620318 20.7794172,16.1771341 20.7794172,15.7809249 L20.7794172,15.7545109 C20.7794172,15.4771645 21.0303497,15.2658529 21.5190078,15.2658529 C21.9416309,15.2658529 22.4831169,15.4375435 23.0510168,15.71489 C23.1830866,15.7809249 23.2755354,15.8073388 23.4208121,15.8073388 C23.8698493,15.8073388 24.2264376,15.4639575 24.2264376,15.0149203 C24.2264376,14.671539 24.0415399,14.4073995 23.7509865,14.2621228 C23.0642238,13.9187414 22.2982193,13.7206368 21.5586287,13.7206368 C20.1322754,13.7206368 18.9700616,14.5262623 18.9700616,15.9658225 L18.9700616,15.9922365 C18.9700616,17.3657619 20.0926545,17.828006 21.0831776,18.1185594 C21.8623891,18.356285 22.5491518,18.5015617 22.5491518,18.9373919 L22.5491518,18.9638058 C22.5491518,19.2807732 22.2850123,19.4920848 21.7039054,19.4920848 C21.1360055,19.4920848 20.4624498,19.2807732 19.7888941,18.85815 C19.6832383,18.7921151 19.5379615,18.7524942 19.3926848,18.7524942 C18.9436477,18.7524942 18.6002663,19.0958756 18.6002663,19.5449127 C18.6002663,19.8618801 18.771957,20.0996056 18.9832686,20.2316754 C19.841722,20.7863683 20.7794172,21.0373008 21.6510775,21.0373008 L21.6510775,21.0373008 Z" id="Ps" fill="#2FD0FE"></path>
            </g>
        </g>
    </g>
</svg>