<?xml version="1.0" encoding="utf-8"?>
<!-- Generator: Adobe Illustrator 21.1.0, SVG Export Plug-In . SVG Version: 6.00 Build 0)  -->
<svg version="1.1" id="Calque_1" xmlns="http://www.w3.org/2000/svg" xmlns:xlink="http://www.w3.org/1999/xlink" x="0px" y="0px"
	 viewBox="0 0 16 16" style="enable-background:new 0 0 16 16;" xml:space="preserve">
<style type="text/css">
	.st0{fill:#5FCF80;}
</style>
<path class="st0" d="M13.6,2.9c-0.5-0.3-1.4,0.2-1.9,1.1l-0.9,1.6c-0.3,0.7-0.3,1.5,0.1,2.1l0,0c0.4,0.6,1,1.2,1.2,1.4
	c0.1,0.1,0.2,0.3,0.2,0.4c0.2,0.6-0.2,1.1-0.7,1.3c-0.6,0.2-1.1-0.2-1.3-0.7c0-0.1,0-0.3,0-0.4c0-0.2,0-0.6-0.4-1S9,9.1,8.7,9.8l0,0
	c-0.2,0.7-0.4,1.4-0.3,1.4c0,0,0,0.1,0.1,0.1C8.8,12,8.6,12.7,8,13c-0.6,0.3-1.3,0.1-1.6-0.5c-0.3-0.6-0.1-1.3,0.5-1.6l0.1,0
	c0,0,0.2-0.3,0.3-0.7l0.2-0.6c0,0,0-0.1,0-0.1L8,7.3L7.4,8.6C7.3,8.4,7.2,8.4,7,8.6C6.8,8.7,6.5,8.9,6.4,9C6.2,9.2,5.9,9.5,5.8,9.7
	C5.8,9.9,5.7,10,5.6,10.1c-0.4,0.4-1.1,0.3-1.5-0.1C3.7,9.5,3.8,8.8,4.3,8.4c0.1-0.1,0.3-0.2,0.4-0.2c0.3-0.1,1.2-0.6,1.7-1
	C6.5,7.2,6.6,7.1,6.7,7l1.5-1.1L6.8,6.6c0,0-0.1,0-0.3,0c-0.5,0.1-0.9,0.1-1,0.2C5.5,6.9,5.4,7,5.3,7C4.9,7.3,4.3,7.2,4,6.8
	c-0.3-0.4-0.2-1,0.2-1.3c0.2-0.1,0.4-0.2,0.6-0.2c0.3,0,1.2,0.2,2,0.1l0.2,0c0.8-0.1,1.6-0.8,2-1.4l0.8-1.4c0.4-0.8,0.4-1.6-0.1-1.8
	L8.8,0.2C8.4,0,7.7,0,7.3,0.2L1.4,3.5C1,3.7,0.6,4.3,0.6,4.8v6.4c0,0.5,0.3,1.1,0.8,1.3l5.8,3.3c0.4,0.2,1.1,0.2,1.5,0l5.8-3.3
	c0.4-0.2,0.8-0.8,0.8-1.3V4.8c0-0.5-0.4-1.1-0.8-1.3L13.6,2.9"/>
</svg>
