<?xml version="1.0" encoding="utf-8"?>
<!-- Generator: Adobe Illustrator 21.1.0, SVG Export Plug-In . SVG Version: 6.00 Build 0)  -->
<svg version="1.1" id="Calque_1" xmlns="http://www.w3.org/2000/svg" xmlns:xlink="http://www.w3.org/1999/xlink" x="0px" y="0px"
	 viewBox="0 0 16 16" style="enable-background:new 0 0 16 16;" xml:space="preserve">
<style type="text/css">
	.st0{fill:#21759B;}
</style>
<path class="st0" d="M14.3,4.5c0.6,1,0.9,2.2,0.9,3.4c0,2.7-1.4,5-3.6,6.2l2.2-6.4c0.4-1,0.5-1.8,0.5-2.6C14.4,5,14.3,4.8,14.3,4.5
	 M9,4.6c0.4,0,0.8-0.1,0.8-0.1c0.4-0.1,0.3-0.6,0-0.6c0,0-1.2,0.1-1.9,0.1C7.1,4,5.9,3.9,5.9,3.9c-0.4,0-0.4,0.6-0.1,0.6
	c0,0,0.4,0,0.8,0.1l1.1,3.1l-1.6,4.7L3.6,4.6c0.4,0,0.8-0.1,0.8-0.1c0.4-0.1,0.3-0.6,0-0.6c0,0-1.2,0.1-1.9,0.1C2.3,4,2.1,4,2,4
	c1.3-1.9,3.5-3.2,6-3.2c1.9,0,3.6,0.7,4.9,1.9c0,0-0.1,0-0.1,0c-0.7,0-1.2,0.6-1.2,1.3c0,0.6,0.3,1.1,0.7,1.7c0.3,0.5,0.6,1.1,0.6,2
	c0,0.6-0.2,1.3-0.5,2.3l-0.7,2.4L9,4.6L9,4.6z M8,15.2c-0.7,0-1.4-0.1-2-0.3l2.2-6.3l2.2,6.1c0,0,0,0.1,0.1,0.1
	C9.6,15,8.8,15.2,8,15.2 M0.8,8c0-1,0.2-2,0.6-2.9l3.4,9.4C2.5,13.3,0.8,10.8,0.8,8 M8,0C3.6,0,0,3.6,0,8s3.6,8,8,8s8-3.6,8-8
	S12.4,0,8,0"/>
</svg>
